<?xml version="1.0" encoding="utf-8"?>
<!-- Generator: Adobe Illustrator 26.0.0, SVG Export Plug-In . SVG Version: 6.00 Build 0)  -->
<svg version="1.1" id="레이어_1" xmlns="http://www.w3.org/2000/svg" xmlns:xlink="http://www.w3.org/1999/xlink" x="0px"
	 y="0px" viewBox="0 0 300 300" style="enable-background:new 0 0 300 300;" xml:space="preserve">
<style type="text/css">
	.st0{fill:#FFFFFF;}
</style>
<g>
	<path class="st0" d="M150,300C67.3,300,0,232.7,0,150S67.3,0,150,0s150,67.3,150,150S232.7,300,150,300z M150,17.1
		C76.7,17.1,17.1,76.7,17.1,150S76.7,282.9,150,282.9S282.9,223.3,282.9,150S223.3,17.1,150,17.1z"/>
	<g>
		<path class="st0" d="M208.3,208.5h-25c-2.4,0-4.7-1-6.3-2.8l-27-29.5l-27,29.5c-1.6,1.8-3.9,2.8-6.3,2.8h-25
			c-4.7,0-8.5-3.8-8.5-8.5V100c0-3.5,2.2-6.7,5.4-8c3.3-1.3,7-0.4,9.4,2.2l52,56.8l52-56.8c2.4-2.6,6.1-3.5,9.4-2.2
			c3.3,1.3,5.4,4.4,5.4,8v100C216.9,204.7,213,208.5,208.3,208.5z M187.1,191.5h12.7V122l-38.2,41.7L187.1,191.5z M100.2,191.5h12.7
			l25.5-27.8L100.2,122V191.5z"/>
	</g>
</g>
</svg>
